<?xml version="1.0" encoding="UTF-8"?> <svg xmlns="http://www.w3.org/2000/svg" width="244" height="67" viewBox="0 0 244 67" fill="none"><g id="logo_spotify"><path id="Vector" d="M34.8409 0.15077C16.4836 -0.5789 1.01457 13.7105 0.284904 32.0678C-0.444766 50.425 13.8476 65.894 32.2019 66.6237C50.5592 67.3534 66.0282 53.064 66.7578 34.7067C67.4845 16.3494 53.1951 0.8774 34.8409 0.15077ZM48.8809 48.8806C48.4674 49.6102 47.6618 49.9751 46.8774 49.8656C46.6372 49.8322 46.397 49.7531 46.172 49.6254C41.7758 47.1233 36.9843 45.4937 31.9313 44.7823C26.8783 44.0708 21.8223 44.3171 16.9062 45.5119C15.839 45.7703 14.7658 45.1167 14.5074 44.0495C14.249 42.9824 14.9026 41.9092 15.9698 41.6508C21.3754 40.3373 26.9331 40.0668 32.4846 40.8481C38.0362 41.6295 43.302 43.4202 48.1391 46.1717C49.0907 46.7159 49.4251 47.9259 48.884 48.8806H48.8809ZM53.2529 40.1488C52.5749 41.4014 51.0061 41.8697 49.7535 41.1917C44.6093 38.4098 39.0395 36.5826 33.1991 35.7617C27.3587 34.9408 21.5031 35.1628 15.7904 36.4184C15.4803 36.4853 15.1732 36.4975 14.8753 36.4549C13.8385 36.309 12.9508 35.5367 12.7136 34.4513C12.4065 33.0589 13.2882 31.6816 14.6807 31.3746C20.9954 29.9852 27.4682 29.7389 33.9197 30.6449C40.3681 31.5509 46.5247 33.5697 52.21 36.6464C53.4657 37.3244 53.9309 38.8902 53.2529 40.1458V40.1488ZM58.0991 30.3044C57.4606 31.5327 56.132 32.1681 54.8369 31.9857C54.4872 31.937 54.1437 31.8276 53.8123 31.6573C47.8229 28.541 41.3714 26.4827 34.6372 25.5372C27.9029 24.5917 21.1322 24.7923 14.5165 26.1361C12.7957 26.4858 11.1205 25.373 10.7709 23.6553C10.4212 21.9345 11.534 20.2593 13.2517 19.9096C20.5789 18.4229 28.0701 18.201 35.5219 19.2468C42.9736 20.2927 50.1122 22.5729 56.7462 26.0237C58.3028 26.8324 58.9078 28.7508 58.0991 30.3074V30.3044Z" fill="#00E387"></path><path id="Vector_2" d="M93.5246 50.7719C87.7875 50.7719 82.8623 48.7866 80.804 46.5307C80.6094 46.3088 80.582 46.1872 80.582 45.9166V39.2006C80.582 38.8814 80.8526 38.7598 81.0715 39.0303C83.5463 42.1193 88.8182 44.6427 93.1324 44.6427C96.5648 44.6427 98.8694 43.7124 98.8694 40.6721C98.8694 38.857 98.012 37.6804 93.33 36.3579L90.6332 35.5978C84.3824 33.8345 80.582 31.7488 80.582 25.7686C80.582 20.4754 85.483 15.8177 93.6705 15.8177C97.6898 15.8177 101.685 17.0673 103.989 18.785C104.184 18.931 104.26 19.0799 104.26 19.3475V25.4524C104.26 25.8689 103.916 25.9905 103.597 25.723C101.733 24.1785 98.1306 22.0959 93.8651 22.0959C89.5995 22.0959 87.5899 24.0083 87.5899 25.7716C87.5899 27.6353 88.8881 28.1491 93.5215 29.5233L95.8261 30.2104C102.959 32.3417 105.877 35.3333 105.877 40.286C105.877 46.6584 100.584 50.778 93.5246 50.778V50.7719ZM143.504 37.9754C143.504 34.0777 146.201 31.1864 150.001 31.1864C153.801 31.1864 156.471 34.0777 156.471 37.9754C156.471 41.873 153.774 44.7643 150.001 44.7643C146.228 44.7643 143.504 41.873 143.504 37.9754ZM149.974 50.7719C157.891 50.7719 163.406 45.1109 163.406 37.9754C163.406 30.8398 157.891 25.1788 149.974 25.1788C142.057 25.1788 136.566 30.7911 136.566 37.9754C136.566 45.1596 142.032 50.7719 149.974 50.7719ZM197.773 23.7103V25.7686H193.605C193.383 25.7686 193.261 25.8902 193.261 26.1121V31.0131C193.261 31.235 193.383 31.3566 193.605 31.3566H197.773V49.8386C197.773 50.0605 197.895 50.1821 198.117 50.1821H204.392C204.614 50.1821 204.735 50.0605 204.735 49.8386V31.3566H210.105L217.9 48.2941L213.707 57.5092C213.586 57.7798 213.732 57.9014 213.978 57.9014H220.67C220.891 57.9014 220.989 57.8528 221.086 57.6308L234.935 26.1577C235.032 25.9358 234.91 25.7655 234.664 25.7655H228.389C228.167 25.7655 228.07 25.8142 227.972 26.0361L221.649 41.2345L215.3 26.0361C215.203 25.8142 215.106 25.7655 214.884 25.7655H204.735V24.1481C204.735 21.5 206.526 20.2748 208.828 20.2748C210.199 20.2748 211.695 20.9862 212.75 21.6216C212.996 21.7676 213.166 21.5973 213.069 21.3754L210.862 16.1065C210.789 15.9363 210.691 15.8359 210.518 15.7387C209.439 15.1762 207.675 14.6837 205.958 14.6837C200.762 14.6837 197.77 18.6543 197.77 23.7042L197.773 23.7103ZM123.894 50.623C130.169 50.623 134.678 45.2052 134.678 37.9267C134.678 30.6482 130.118 25.3277 123.842 25.3277C119.185 25.3277 116.488 28.1704 114.919 31.0131V26.1121C114.919 25.8902 114.797 25.7686 114.576 25.7686H108.422C108.2 25.7686 108.078 25.8902 108.078 26.1121V57.5609C108.078 57.7829 108.2 57.9045 108.422 57.9045H114.576C114.797 57.9045 114.919 57.7829 114.919 57.5609V44.9863C116.488 47.8289 119.136 50.623 123.891 50.623H123.894ZM176.251 50.5257C178.309 50.5257 180.294 49.9875 181.471 49.3004C181.641 49.2032 181.666 49.1059 181.666 48.9326V44.2748C181.666 44.0286 181.544 43.9556 181.322 44.0803C180.611 44.4725 179.68 44.7917 178.406 44.7917C176.397 44.7917 175.123 43.6151 175.123 41.0156V31.3566H181.252C181.474 31.3566 181.596 31.235 181.596 31.0131V26.1121C181.596 25.8902 181.474 25.7686 181.252 25.7686H175.123V19.3718C175.123 19.1012 174.953 18.9553 174.706 19.1499L163.749 27.7782C163.603 27.8998 163.555 28.0245 163.555 28.2191V31.0131C163.555 31.235 163.676 31.3566 163.898 31.3566H168.164V42.0433C168.164 47.8289 171.496 50.5257 176.254 50.5257H176.251ZM183.335 18.5144C183.335 20.7217 185.05 22.3878 187.403 22.3878C189.756 22.3878 191.519 20.7217 191.519 18.5144C191.519 16.3072 189.805 14.6411 187.403 14.6411C185.001 14.6411 183.335 16.3072 183.335 18.5144ZM184.289 50.1852H190.565C190.787 50.1852 190.908 50.0636 190.908 49.8416V26.1152C190.908 25.8932 190.787 25.7716 190.565 25.7716H184.289C184.067 25.7716 183.946 25.8932 183.946 26.1152V49.8416C183.946 50.0636 184.067 50.1852 184.289 50.1852ZM114.773 37.8811C115.901 34.1051 118.498 31.2137 122.027 31.2137C125.557 31.2137 127.713 33.7615 127.713 37.9297C127.713 42.098 125.384 44.6944 122.027 44.6944C118.671 44.6944 115.898 41.4595 114.773 37.8811Z" fill="#00E387"></path><g id="Vector_3"><path d="M242.973 27.2092C242.651 26.6529 242.204 26.2181 241.632 25.9019C241.061 25.5888 240.422 25.4307 239.711 25.4307C239 25.4307 238.361 25.5888 237.789 25.9019C237.218 26.2181 236.771 26.6529 236.449 27.2092C236.126 27.7656 235.965 28.3949 235.965 29.0973C235.965 29.7996 236.126 30.4167 236.449 30.9731C236.771 31.5295 237.218 31.9643 237.789 32.2804C238.361 32.5966 239 32.7517 239.711 32.7517C240.422 32.7517 241.061 32.5936 241.632 32.2804C242.204 31.9673 242.651 31.5295 242.973 30.9731C243.295 30.4167 243.457 29.7935 243.457 29.0973C243.457 28.401 243.295 27.7656 242.973 27.2092ZM242.386 30.663C242.125 31.1251 241.76 31.4839 241.295 31.7454C240.83 32.0038 240.301 32.1345 239.714 32.1345C239.127 32.1345 238.583 32.0038 238.118 31.7454C237.653 31.4869 237.291 31.1251 237.032 30.663C236.774 30.2039 236.646 29.681 236.646 29.0973C236.646 28.5135 236.774 27.9936 237.032 27.5376C237.291 27.0815 237.653 26.7228 238.118 26.4644C238.583 26.2059 239.115 26.0752 239.714 26.0752C240.313 26.0752 240.83 26.2059 241.295 26.4644C241.76 26.7228 242.125 27.0846 242.386 27.5467C242.648 28.0088 242.779 28.5287 242.779 29.1125C242.779 29.6962 242.648 30.2039 242.386 30.666V30.663Z" fill="#00E387"></path><path d="M240.985 29.0273C241.234 28.8449 241.359 28.6017 241.359 28.3007C241.359 27.9997 241.237 27.7443 240.994 27.5619C240.751 27.3795 240.398 27.2883 239.936 27.2883H238.306V30.6934H239.094V29.3405H239.522L240.559 30.6934H241.526L240.392 29.2584C240.632 29.2128 240.836 29.1368 240.988 29.0243L240.985 29.0273ZM239.811 28.7263H239.094V27.8933H239.839C240.061 27.8933 240.231 27.9267 240.349 27.9967C240.468 28.0666 240.529 28.173 240.529 28.3189C240.529 28.4558 240.465 28.5591 240.343 28.626C240.219 28.6959 240.042 28.7294 239.811 28.7294V28.7263Z" fill="#00E387"></path></g></g></svg>