<svg width="195" height="48" viewBox="0 0 195 48" fill="none" xmlns="http://www.w3.org/2000/svg">
<path d="M81.8542 46.4764V15.2608H81.6229L69.1367 46.4764H64.281L51.7947 15.2608H51.5635V46.4764H45.7829V4.16197H53.1821L66.5932 37.921H66.8245L80.2356 4.16197H87.8661V46.4764H81.8542ZM120.469 46.4764H114.457V41.1582H114.226C112.607 44.8578 109.37 46.9389 104.746 46.9389C98.04 46.9389 94.1092 42.5456 94.1092 35.3775V15.4921H100.352V34.2214C100.352 38.8459 102.665 41.3894 106.827 41.3894C111.451 41.3894 113.995 38.1523 113.995 33.2965V15.4921H120.238L120.469 46.4764ZM137.58 15.0296C144.748 15.0296 149.141 18.9605 149.372 24.7411H143.592C143.129 21.7352 141.048 19.8854 137.58 19.8854C134.111 19.8854 131.799 21.504 131.799 24.0474C131.799 25.8973 133.186 27.2846 136.424 27.9783L141.279 29.1344C147.522 30.5218 149.835 33.0653 149.835 37.4586C149.835 43.008 144.748 46.9389 137.58 46.9389C129.949 46.9389 125.325 43.2392 124.862 37.2273H131.105C131.568 40.4645 133.88 42.0831 137.58 42.0831C141.279 42.0831 143.592 40.4645 143.592 37.921C143.592 35.84 142.435 34.6839 139.198 33.9902L134.343 32.834C128.562 31.4467 125.787 28.672 125.787 24.0474C125.787 18.7292 130.412 15.0296 137.58 15.0296ZM154.459 7.39914C154.459 5.31811 156.078 3.69952 158.159 3.69952C160.24 3.69952 161.858 5.31811 161.858 7.39914C161.858 9.48018 160.24 11.0988 158.159 11.0988C156.078 11.0988 154.459 9.48018 154.459 7.39914ZM154.922 15.4921H161.165V46.4764H154.922V15.4921ZM187.525 26.1285C186.831 22.8913 184.519 20.1166 180.357 20.1166C175.501 20.1166 172.264 24.2787 172.264 30.753C172.264 37.4586 175.501 41.3894 180.357 41.3894C184.287 41.3894 186.6 39.3084 187.525 35.6088H193.536C192.843 42.0831 187.756 46.7076 180.357 46.7076C171.57 46.7076 166.021 40.6957 166.021 30.753C166.021 21.0415 171.57 14.7984 180.357 14.7984C188.218 14.7984 192.843 19.8854 193.536 25.8973L187.525 26.1285ZM26.5911 8.32405C24.9725 10.1739 22.429 11.7924 19.8855 11.5612C19.4231 8.7865 20.8104 6.01179 22.1978 4.3932C23.8164 2.31216 26.5911 0.924805 28.9033 0.924805C29.1346 3.46829 28.2097 6.24301 26.5911 8.32405ZM28.9033 12.0237C30.2907 12.0237 34.4528 12.4861 37.2275 16.6482C36.9963 16.8794 32.3717 19.6541 32.3717 25.4348C32.3717 32.3716 38.3836 34.6839 38.3836 34.6839C38.3836 34.9151 37.4587 37.921 35.3777 41.1582C33.5279 43.9329 31.4468 46.7076 28.4409 46.7076C25.4349 46.7076 24.51 44.8578 21.0416 44.8578C17.5732 44.8578 16.4171 46.7076 13.6424 46.7076C10.6365 46.7076 8.32419 43.7017 6.47438 40.927C2.54353 35.1463 -0.46241 24.7411 3.69966 17.8043C5.54948 14.3359 9.2491 12.0237 12.9487 12.0237C15.9547 12.0237 18.7294 14.1047 20.348 14.1047C21.9665 14.1047 25.2037 11.7924 28.9033 12.0237Z" fill="#00E387"></path>
</svg>