<?xml version="1.0" encoding="UTF-8"?> <svg xmlns="http://www.w3.org/2000/svg" width="223" height="51" viewBox="0 0 223 51" fill="none"><g id="logo_youtube"><g id="Vector"><path d="M103.274 45.7296C101.881 44.7889 100.888 43.3257 100.295 41.3399C99.709 39.3541 99.4129 36.718 99.4129 33.4199V28.9316C99.4129 25.6045 99.7496 22.9277 100.423 20.9129C101.097 18.8981 102.148 17.4232 103.576 16.5C105.004 15.5768 106.88 15.1123 109.203 15.1123C111.525 15.1123 113.319 15.5826 114.701 16.5232C116.077 17.4639 117.088 18.9387 117.726 20.9361C118.365 22.9393 118.684 25.6045 118.684 28.9316V33.4199C118.684 36.718 118.371 39.3657 117.75 41.3631C117.128 43.3664 116.118 44.8296 114.724 45.7528C113.331 46.676 111.438 47.1405 109.052 47.1405C106.665 47.1405 104.673 46.6702 103.274 45.7296ZM111.095 40.887C111.479 39.8767 111.676 38.2335 111.676 35.9457V26.3129C111.676 24.0948 111.484 22.469 111.095 21.4471C110.706 20.4194 110.027 19.9084 109.052 19.9084C108.076 19.9084 107.443 20.4194 107.06 21.4471C106.671 22.4748 106.479 24.0948 106.479 26.3129V35.9457C106.479 38.2335 106.665 39.8825 107.037 40.887C107.408 41.8973 108.076 42.4025 109.052 42.4025C110.027 42.4025 110.706 41.8973 111.095 40.887Z" fill="#00E387"></path><path d="M210.414 33.4954V35.0574C210.414 37.0432 210.472 38.5296 210.589 39.5225C210.705 40.5154 210.949 41.2354 211.32 41.6941C211.692 42.147 212.261 42.3735 213.033 42.3735C214.072 42.3735 214.792 41.967 215.176 41.1599C215.565 40.3528 215.774 39.0057 215.809 37.1245L221.812 37.4786C221.847 37.7457 221.865 38.1174 221.865 38.5877C221.865 41.4444 221.081 43.5812 219.519 44.9922C217.957 46.4031 215.745 47.1115 212.888 47.1115C209.456 47.1115 207.052 46.0373 205.676 43.8831C204.294 41.729 203.609 38.4019 203.609 33.8961V28.4961C203.609 23.8568 204.323 20.4658 205.752 18.329C207.18 16.1923 209.625 15.1239 213.091 15.1239C215.478 15.1239 217.312 15.5594 218.59 16.4361C219.867 17.3129 220.767 18.6716 221.29 20.5239C221.812 22.3761 222.074 24.9309 222.074 28.1942V33.4896H210.42L210.414 33.4954ZM211.297 20.4832C210.943 20.9187 210.711 21.6329 210.589 22.6258C210.472 23.6187 210.414 25.1226 210.414 27.1432V29.3613H215.507V27.1432C215.507 25.1574 215.437 23.6535 215.303 22.6258C215.17 21.5981 214.926 20.8781 214.572 20.4542C214.218 20.0361 213.672 19.8213 212.934 19.8213C212.197 19.8213 211.645 20.0419 211.297 20.4774V20.4832Z" fill="#00E387"></path><path d="M86.3194 32.9206L78.3994 4.31812H85.309L88.0845 17.2839C88.7929 20.4774 89.3097 23.2006 89.6464 25.4535H89.8497C90.0819 23.8393 90.6045 21.1335 91.4116 17.3303L94.2858 4.31812H101.195L93.1768 32.9206V46.6412H86.3136V32.9206H86.3194Z" fill="#00E387"></path><path d="M141.161 15.7161V46.6412H135.715L135.111 42.8554H134.96C133.479 45.7122 131.261 47.1405 128.3 47.1405C126.25 47.1405 124.735 46.467 123.759 45.1257C122.784 43.7786 122.296 41.6767 122.296 38.8199V15.7161H129.258V38.4135C129.258 39.7954 129.409 40.7767 129.711 41.3631C130.013 41.9496 130.518 42.2457 131.226 42.2457C131.83 42.2457 132.411 42.0599 132.968 41.6883C133.526 41.3167 133.932 40.8464 134.205 40.2773V15.7161H141.167H141.161Z" fill="#00E387"></path><path d="M176.865 15.7161V46.6412H171.418L170.815 42.8554H170.664C169.183 45.7122 166.965 47.1405 164.004 47.1405C161.954 47.1405 160.438 46.467 159.463 45.1257C158.487 43.7786 158 41.6767 158 38.8199V15.7161H164.962V38.4135C164.962 39.7954 165.113 40.7767 165.415 41.3631C165.716 41.9496 166.222 42.2457 166.93 42.2457C167.534 42.2457 168.115 42.0599 168.672 41.6883C169.229 41.3167 169.636 40.8464 169.909 40.2773V15.7161H176.871H176.865Z" fill="#00E387"></path><path d="M160.073 9.91552H153.163V46.6412H146.352V9.91552H139.442V4.31812H160.073V9.91552Z" fill="#00E387"></path><path d="M199.905 20.6574C199.481 18.7065 198.802 17.2955 197.861 16.4187C196.92 15.5419 195.625 15.1065 193.976 15.1065C192.699 15.1065 191.503 15.4665 190.394 16.1923C189.285 16.9181 188.425 17.8645 187.822 19.0432H187.769V2.75038H181.063V46.6354H186.811L187.52 43.7089H187.671C188.211 44.7541 189.018 45.5728 190.092 46.1825C191.166 46.7864 192.362 47.0883 193.674 47.0883C196.026 47.0883 197.762 46.0025 198.871 43.8367C199.98 41.6651 200.538 38.2799 200.538 33.6696V28.7748C200.538 25.3142 200.329 22.6026 199.905 20.6516V20.6574ZM193.523 33.269C193.523 35.5219 193.431 37.287 193.245 38.5644C193.059 39.8419 192.751 40.7535 192.31 41.2877C191.874 41.8277 191.282 42.0948 190.545 42.0948C189.97 42.0948 189.442 41.9612 188.954 41.6883C188.466 41.4212 188.071 41.0148 187.769 40.4806V22.9277C188.002 22.0858 188.408 21.4006 188.983 20.8606C189.552 20.3206 190.179 20.0535 190.847 20.0535C191.555 20.0535 192.101 20.3323 192.484 20.8839C192.873 21.4413 193.14 22.3703 193.291 23.6826C193.442 24.9948 193.518 26.8587 193.518 29.28V33.2632L193.523 33.269Z" fill="#00E387"></path><path fill-rule="evenodd" clip-rule="evenodd" d="M63.7149 2.28587C66.7517 3.09877 69.1381 5.48521 69.951 8.52198H69.9452C71.4201 14.0207 71.4201 25.5 71.4201 25.5C71.4201 25.5 71.4201 36.9793 69.9452 42.478C69.1323 45.5147 66.7459 47.9012 63.7091 48.7141C58.2104 50.1889 36.1518 50.1889 36.1518 50.1889C36.1518 50.1889 14.0932 50.1889 8.59448 48.7141C5.55772 47.9012 3.17128 45.5147 2.35838 42.478C0.883545 36.9793 0.883545 25.5 0.883545 25.5C0.883545 25.5 0.883545 14.0207 2.35838 8.52198C3.17128 5.48521 5.55772 3.09877 8.59448 2.28587C14.0932 0.811035 36.1518 0.811035 36.1518 0.811035C36.1518 0.811035 58.2104 0.811035 63.7149 2.28587ZM47.4279 25.5L29.097 14.9207V36.0793L47.4279 25.5Z" fill="#00E387"></path></g></g></svg>