<svg width="142" height="59" viewBox="0 0 142 59" fill="none" xmlns="http://www.w3.org/2000/svg">
<path d="M139.955 16.2695L139.937 16.1885C138.958 12.2279 137.172 8.97767 134.633 6.51884C132.096 4.07474 128.82 2.32632 124.878 1.32144C121.374 0.445387 117.134 0 112.279 0C108.41 0 104.95 0.261342 101.976 0.780347C98.6998 1.36561 95.8324 2.36313 93.4582 3.74714C91.4227 4.9287 89.689 6.44891 88.2755 8.28199C87.1602 4.01216 83.2916 0.857645 78.7052 0.857645H64.3903C59.8959 0.857645 55.766 3.14347 53.3403 6.98632C53.1894 7.22557 52.4863 8.34088 52.4753 8.35929L51.9489 9.20589C51.5146 9.90158 51.0802 10.6009 50.6422 11.3077V10.8144C50.6422 5.32624 46.203 0.857645 40.748 0.857645H26.433C21.935 0.857645 17.8087 3.14347 15.383 6.98264C15.2321 7.22557 14.529 8.34088 14.518 8.35561L14.0358 9.13595C13.1818 10.5089 12.3205 11.8966 11.4187 13.3211L10.9954 13.991C10.0641 15.4634 9.09974 16.9873 8.12798 18.5701C7.38444 19.7847 4.21888 24.6325 2.3085 27.5588L2.10237 27.8717C0.453339 30.3894 -0.260752 33.4224 0.0852506 36.4113L0.383402 38.9548C1.1343 45.4552 6.6409 50.3618 13.1855 50.3618H24.9202C26.3005 54.4513 30.1323 57.3445 34.6672 57.3445H39.8903C44.4951 57.3445 48.441 54.4881 49.9944 50.3618H62.8112C64.1915 54.4513 68.0233 57.3445 72.5582 57.3445H77.7813C82.3861 57.3445 86.332 54.4881 87.8854 50.3618H88.2792C88.4485 50.4207 88.9013 50.7005 89.435 51.2894C89.4792 51.3373 89.527 51.3888 89.5712 51.4367C89.6338 51.5066 89.7001 51.5765 89.7773 51.6502C92.2435 54.1163 95.549 55.8905 99.6163 56.9285C103.121 57.8046 107.357 58.25 112.216 58.25C116.254 58.25 119.64 57.9739 122.57 57.4034C125.736 56.8328 128.585 55.8206 131.036 54.3924C133.687 52.8538 135.833 50.7373 137.408 48.1055C138.832 45.7239 139.815 43.0258 140.412 39.8456C140.908 37.1806 141.14 34.0703 141.14 30.0618V28.0704C141.14 23.138 140.765 19.3872 139.959 16.2658L139.955 16.2695ZM138.004 30.0655C138.004 33.8788 137.791 36.8052 137.331 39.275C136.808 42.0799 135.954 44.443 134.721 46.5006C133.418 48.6723 131.651 50.4171 129.461 51.687C127.319 52.9348 124.805 53.8256 121.992 54.3298C119.254 54.8636 116.055 55.1212 112.212 55.1212C107.611 55.1212 103.625 54.709 100.371 53.8955C96.8667 53.001 94.0508 51.5029 91.9859 49.4379C91.9343 49.3864 91.8865 49.3349 91.8386 49.2834L91.857 49.3018C91.8202 49.2649 91.7797 49.2245 91.7466 49.184C91.0841 48.4552 89.7626 47.2331 88.3418 47.2331H85.4192C85.0437 51.1459 81.7604 54.2157 77.7777 54.2157H72.5545C68.6822 54.2157 65.5166 51.1054 65.3915 47.2331H47.5282C47.1527 51.1459 43.8694 54.2157 39.8866 54.2157H34.6635C30.7912 54.2157 27.6256 51.1054 27.5005 47.2331H13.1818C8.22368 47.2331 4.05692 43.5228 3.48639 38.5977L3.18824 36.0506C2.92321 33.7905 3.46798 31.4936 4.7158 29.5869L4.92193 29.2704C6.82863 26.3478 10.02 21.4596 10.7893 20.2007C11.75 18.64 12.7107 17.1198 13.6383 15.6511L14.0542 14.9922C14.9597 13.5604 15.8247 12.1653 16.686 10.7813L17.1646 10.0083C17.1646 10.0083 17.8713 8.88565 18.0259 8.64271C19.87 5.72377 23.0061 3.9864 26.422 3.9864H40.7369C44.4657 3.9864 47.5024 7.04889 47.5024 10.8108V19.7148C47.5024 19.943 47.5613 20.0939 47.7012 20.2228C47.8521 20.3626 48.0766 20.4473 48.2864 20.4473C48.4962 20.4473 48.6398 20.3663 48.7686 20.1565C49.722 18.6105 50.6974 17.0646 51.6397 15.5738L52.0078 14.9886C52.8986 13.5825 53.7489 12.2095 54.5918 10.8512L55.1181 10.0046C55.1181 10.0046 55.8286 8.87829 55.9758 8.63903C57.8199 5.71641 60.956 3.98271 64.3719 3.98271H78.6868C82.4156 3.98271 85.4523 7.04521 85.4523 10.8071V29.1563C85.4523 29.4692 85.7063 29.7231 86.0192 29.7231H86.4682V28.1367C86.4682 24.3822 86.6817 21.4596 87.1418 18.9418C87.6608 16.0965 88.5148 13.7113 89.7553 11.6426C91.0583 9.47091 92.8251 7.72617 95.0152 6.45627C97.0729 5.2563 99.5979 4.38393 102.51 3.86493C105.296 3.37905 108.576 3.13243 112.264 3.13243C116.865 3.13243 120.851 3.54469 124.105 4.35817C127.503 5.22685 130.304 6.71025 132.446 8.77523C134.555 10.8144 136.046 13.5604 136.885 16.9431C136.893 16.9689 136.9 16.9983 136.904 17.0241C137.647 19.8878 137.993 23.4067 137.993 28.0778V30.0691L138.004 30.0655Z" fill="white"></path>
<path d="M133.86 17.694C133.175 14.9297 131.986 12.6733 130.285 11.0279C128.578 9.38257 126.251 8.13475 123.354 7.3949C120.399 6.65504 116.707 6.26118 112.271 6.26118C108.749 6.26118 105.679 6.4894 103.069 6.94583C100.511 7.40226 98.3501 8.14211 96.5943 9.16172C94.8312 10.185 93.473 11.5433 92.4497 13.2512C91.4264 14.9591 90.6865 17.002 90.2301 19.5013C89.7737 22.0006 89.608 24.8423 89.608 28.1367V30.1243C89.608 31.6298 88.5038 32.8519 86.9909 32.8519H86.0302C83.991 32.8519 82.3346 31.1992 82.3346 29.1563V10.8071C82.3346 8.79731 80.7113 7.11147 78.7016 7.11147H64.3866C62.0566 7.11147 59.8886 8.32616 58.6444 10.2954C58.3684 10.7371 58.0776 11.1936 57.7868 11.6574C56.7635 13.3027 55.7402 14.9517 54.6654 16.6597C53.5869 18.3676 52.5084 20.0645 51.4262 21.8276C49.3944 25.0484 44.3773 23.5208 44.3773 19.7148V10.8108C44.3773 8.80099 42.7541 7.11515 40.7443 7.11515H26.4293C24.0993 7.11515 21.9313 8.32984 20.6872 10.2991C20.4111 10.7408 20.1203 11.1972 19.8295 11.661C18.8062 13.3064 17.7829 14.9554 16.7081 16.6634C15.6296 18.3713 14.5511 20.0682 13.4689 21.8313C12.6481 23.1785 9.30218 28.2986 7.34027 31.3022C6.48999 32.6016 6.12558 34.1476 6.30226 35.6898L6.60041 38.2407C6.98691 41.5829 9.82119 44.1043 13.1855 44.1043H27.736C29.3372 44.1043 30.6292 45.4037 30.6292 46.9975C30.6292 49.2208 32.4402 51.087 34.6635 51.087H39.8866C42.4301 51.087 44.4325 49.0294 44.4325 46.4859C44.4325 45.1681 45.5037 44.1043 46.8177 44.1043H65.6234C67.2246 44.1043 68.5166 45.4037 68.5166 46.9975C68.5166 49.2208 70.3276 51.087 72.5508 51.087H77.774C80.3175 51.087 82.3199 49.0294 82.3199 46.4859C82.3199 45.1681 83.391 44.1043 84.7051 44.1043H88.3381C90.5761 44.1043 92.5527 45.4258 94.0582 47.0822C94.1061 47.13 94.1466 47.1779 94.1981 47.2257C95.906 48.9337 98.2323 50.1189 101.129 50.8588C104.085 51.5986 107.777 51.9925 112.212 51.9925C115.79 51.9925 118.805 51.7643 121.415 51.2526C123.973 50.7962 126.133 50.0011 127.889 48.9815C129.652 47.9582 131.011 46.6 132.034 44.8921C133.057 43.1841 133.797 41.1412 134.253 38.7008C134.71 36.2567 134.876 33.4151 134.876 30.0655V28.0778C134.876 23.9552 134.596 20.4988 133.863 17.7235C133.863 17.7087 133.86 17.7087 133.86 17.694ZM31.3617 29.09C31.3617 31.4127 29.4808 33.2973 27.1545 33.2973H21.8761C21.0552 33.2973 20.5694 32.3771 21.0332 31.6998L29.3225 19.5749C29.5286 19.2694 29.8746 19.0927 30.2427 19.0927C30.8574 19.0927 31.3617 19.5897 31.3617 20.2044V29.09ZM69.2564 29.09C69.2564 31.4127 67.3755 33.2973 65.0492 33.2973H59.7708C58.9499 33.2973 58.4641 32.3771 58.9279 31.6998L67.2209 19.5749C67.427 19.2694 67.773 19.0927 68.1411 19.0927C68.7558 19.0927 69.2601 19.5897 69.2601 20.2044V29.0863L69.2564 29.09ZM120.737 29.2078C120.737 31.4237 120.627 33.2421 120.399 34.604C120.17 35.9659 119.777 37.0481 119.147 37.8432C118.518 38.6382 117.667 39.1499 116.534 39.4333C115.4 39.7167 113.979 39.8897 112.271 39.8897C110.563 39.8897 109.087 39.7167 107.954 39.4333C106.82 39.1499 105.962 38.6382 105.344 37.8432C104.722 37.0481 104.265 36.0248 104.037 34.604C103.809 33.1795 103.636 31.42 103.636 29.2078V28.9796C103.636 26.7637 103.746 24.9453 104.037 23.5834C104.328 22.2215 104.722 21.1393 105.344 20.3995C105.966 19.6596 106.824 19.148 107.954 18.8645C109.087 18.5811 110.512 18.4081 112.271 18.4081C114.031 18.4081 115.455 18.5811 116.534 18.8645C117.612 19.148 118.525 19.6596 119.147 20.3995C119.769 21.1393 120.17 22.2178 120.399 23.5834C120.627 24.9453 120.737 26.7674 120.737 28.9796V29.2078Z" fill="white"></path>
</svg>