<svg width="674" height="420" viewBox="0 0 674 420" fill="none" xmlns="http://www.w3.org/2000/svg">
<path opacity="0.01" d="M394.4 305.752C383.72 305.752 373.355 304.942 363.59 303.341C358.007 304.094 352.263 304.494 346.928 304.494H339.725C332.447 304.494 324.683 303.77 317.214 302.389C309.735 303.77 301.952 304.494 294.673 304.494H287.471C270.504 304.494 251.536 300.226 235.322 292.786C182.534 282.821 138.196 235.635 132.08 182.818L131.67 179.303C128.269 149.96 135.3 120.18 151.467 95.4483C157.364 86.436 158.431 84.7307 158.441 84.7116C160.041 82.0822 162.004 78.9956 163.175 77.1474C164.614 74.8705 165.776 73.0032 166.919 71.155L167.329 70.4977C167.701 69.8975 168.291 68.9543 168.872 68.0303C192.27 31.0092 232.349 8.91666 276.096 8.91666H295.836C300.999 8.91666 306.572 9.29774 311.983 10.0122C317.49 9.28821 323.168 8.91666 328.436 8.91666H348.176C353.32 8.91666 358.855 9.28821 364.228 9.99319C373.831 8.49749 384.006 7.73535 394.476 7.73535C410.052 7.73535 424.78 9.44063 438.251 12.8131C462.592 19.015 483.684 30.6282 500.956 47.3286C519.381 65.1246 531.937 87.1505 538.273 112.787C538.787 114.883 539.245 116.969 539.635 119.027C541.979 129.916 543.131 141.806 543.131 155.305V158.049C543.131 170.424 542.226 181.046 540.283 191.469C537.063 208.817 531.232 224.345 522.468 238.94C510.721 258.527 494.745 274.266 475.006 285.736C460.553 294.129 444.625 299.912 427.667 302.932C418.14 304.837 407.232 305.771 394.4 305.771V305.752Z" stroke="white" stroke-width="2.08297"></path>
<path opacity="0.02" d="M394.399 297.644C383.71 297.644 373.383 296.805 363.695 295.138C358.093 295.957 352.31 296.386 346.918 296.386H339.716C332.418 296.386 324.654 295.605 317.204 294.138C309.735 295.614 301.961 296.386 294.664 296.386H287.461C271.256 296.386 253.184 292.242 237.789 284.992C187.84 276.046 145.903 231.823 140.12 181.874L139.711 178.359C136.529 150.893 143.112 123.018 158.24 99.8679C163.928 91.1699 165.176 89.1884 165.3 88.9978C166.91 86.3685 168.853 83.2913 170.015 81.4622C171.463 79.1758 172.635 77.2894 173.788 75.4222L174.198 74.7744C174.569 74.1647 175.15 73.2501 175.712 72.3546C197.614 37.7057 235.131 17.0136 276.086 17.0136H295.826C300.999 17.0136 306.563 17.4232 311.964 18.1854C317.471 17.4137 323.149 17.0136 328.426 17.0136H348.166C353.349 17.0136 358.912 17.4137 364.314 18.1854C373.841 16.6325 383.987 15.8418 394.466 15.8418C409.385 15.8418 423.446 17.4709 436.269 20.6719C459.2 26.5118 479.054 37.439 495.307 53.1581C512.617 69.8871 524.421 90.5983 530.394 114.73C530.87 116.654 531.289 118.607 531.661 120.541C533.909 130.992 535.014 142.386 535.014 155.295V158.038C535.014 169.909 534.147 180.055 532.299 189.972C529.251 206.358 523.763 221.01 515.504 234.757C504.462 253.154 489.467 267.939 470.918 278.714C457.286 286.631 442.252 292.09 426.228 294.938C417.111 296.758 406.67 297.653 394.38 297.653L394.399 297.644Z" stroke="white" stroke-width="2.08297"></path>
<path opacity="0.04" d="M394.399 289.545C383.691 289.545 373.402 288.668 363.79 286.934C358.159 287.82 352.348 288.287 346.918 288.287H339.715C332.399 288.287 324.635 287.449 317.204 285.867C309.763 287.449 301.989 288.287 294.663 288.287H287.461C272.018 288.287 254.851 284.257 240.275 277.208C193.165 269.3 153.62 228.021 148.17 180.949L147.761 177.434C144.798 151.845 150.923 125.875 165.023 104.306C170.758 95.5417 172.035 93.5124 172.159 93.3124C173.769 90.683 175.626 87.7392 176.865 85.7958C178.351 83.4427 179.542 81.5278 180.723 79.6224L181.076 79.0508C181.457 78.4411 182.019 77.5456 182.571 76.6691C202.978 44.3829 237.931 25.1103 276.096 25.1103H295.835C301.018 25.1103 306.572 25.5485 311.954 26.3678C317.451 25.539 323.139 25.1103 328.426 25.1103H348.166C353.386 25.1103 358.979 25.5485 364.399 26.3773C373.869 24.7578 383.967 23.9385 394.475 23.9385C408.727 23.9385 422.131 25.4818 434.316 28.5304C455.837 34.0178 474.462 44.2591 489.695 58.9779C505.891 74.6304 516.951 94.046 522.544 116.672C522.982 118.473 523.382 120.283 523.715 122.064C525.868 132.067 526.916 142.966 526.916 155.294V158.037C526.916 169.393 526.097 179.063 524.344 188.485C521.477 203.909 516.313 217.684 508.568 230.593C498.241 247.798 484.208 261.641 466.86 271.711C454.046 279.151 439.908 284.286 424.818 286.963C416.111 288.697 406.136 289.545 394.39 289.545H394.399Z" stroke="white" stroke-width="2.08297"></path>
<path opacity="0.04" d="M394.399 281.438C383.653 281.438 373.392 280.514 363.875 278.704C358.235 279.676 352.395 280.181 346.927 280.181H339.725C332.38 280.181 324.615 279.276 317.223 277.561C309.801 279.276 302.037 280.181 294.682 280.181H287.48C272.79 280.181 256.537 276.256 242.78 269.396C198.5 262.537 161.355 224.22 156.239 180.007L155.83 176.491C153.076 152.779 158.764 128.714 171.825 108.727C177.589 99.9151 178.913 97.8287 179.037 97.6191C180.666 94.9516 182.514 92.0364 183.734 90.112C185.277 87.6732 186.515 85.6821 187.744 83.7005L187.973 83.329C188.354 82.7193 188.897 81.8428 189.44 80.9949C208.351 51.0713 240.751 33.2087 276.115 33.2087H295.854C301.037 33.2087 306.591 33.6755 311.964 34.571C317.461 33.6755 323.148 33.2087 328.455 33.2087H348.194C353.453 33.2087 359.074 33.685 364.504 34.59C364.837 34.5329 365.161 34.4662 365.485 34.409C374.564 32.8276 384.32 32.0273 394.494 32.0273C408.089 32.0273 420.826 33.4945 432.373 36.3715C452.493 41.4969 469.879 51.0523 484.084 64.7804C499.174 79.3563 509.473 97.4667 514.703 118.597C515.103 120.245 515.465 121.912 515.789 123.561C517.847 133.125 518.847 143.529 518.847 155.266V158.009C518.847 168.851 518.075 178.054 516.408 186.971C513.722 201.432 508.892 214.322 501.651 226.392C492.039 242.416 478.968 255.297 462.82 264.671C450.835 271.635 437.574 276.437 423.427 278.961C415.139 280.609 405.621 281.419 394.418 281.419L394.399 281.438Z" stroke="white" stroke-width="2.08297"></path>
<path opacity="0.05" d="M394.399 273.341C383.605 273.341 373.364 272.369 363.942 270.464C358.302 271.521 352.434 272.083 346.927 272.083H339.725C332.342 272.083 324.587 271.102 317.223 269.235C309.839 271.102 302.066 272.083 294.673 272.083H287.471C273.523 272.083 258.185 268.263 245.257 261.575C203.816 255.783 169.062 220.439 164.27 179.083L163.861 175.568C161.327 153.732 166.566 131.573 178.589 113.177C184.572 104.022 185.829 102.03 185.877 101.945C187.516 99.2676 189.278 96.4763 190.574 94.4471C192.127 91.9892 193.375 89.9791 194.623 87.9784L194.842 87.6259C195.223 87.0067 195.756 86.1588 196.28 85.3395C213.695 57.7786 243.533 41.3259 276.105 41.3259H295.845C301.046 41.3259 306.591 41.8403 311.935 42.8025C317.423 41.8308 323.11 41.3259 328.436 41.3259H348.175C353.472 41.3259 359.121 41.8498 364.552 42.8406C365.333 42.6882 366.114 42.5358 366.886 42.4024C375.488 40.9067 384.767 40.1445 394.475 40.1445C407.403 40.1445 419.483 41.5259 430.391 44.2506C449.102 49.0139 465.259 57.8929 478.435 70.6302C492.41 84.1391 501.966 100.935 506.815 120.57C507.186 122.075 507.52 123.599 507.806 125.114C509.759 134.231 510.721 144.129 510.721 155.295V158.038C510.721 168.365 509.987 177.092 508.425 185.513C505.919 199.013 501.423 211.026 494.687 222.249C485.78 237.082 473.69 249.009 458.733 257.688C447.568 264.176 435.202 268.654 421.988 271.007C414.11 272.569 405.059 273.341 394.399 273.341Z" stroke="white" stroke-width="2.08297"></path>
<path opacity="0.06" d="M394.4 265.242C383.53 265.242 373.307 264.223 363.99 262.203C358.35 263.375 352.472 263.994 346.928 263.994H339.726C332.295 263.994 324.54 262.908 317.223 260.86C309.878 262.908 302.114 263.994 294.673 263.994H287.471C274.267 263.994 259.834 260.269 247.754 253.743C209.133 249.027 176.78 216.674 172.321 178.158L171.912 174.642C169.597 154.684 174.379 134.43 185.373 117.615C191.489 108.269 192.708 106.316 192.756 106.24C194.385 103.573 196.138 100.8 197.424 98.7807C199.006 96.2847 200.273 94.246 201.53 92.2073L201.711 91.9119C202.102 91.2831 202.616 90.4543 203.121 89.6541C219.04 64.4558 246.325 49.413 276.096 49.413H295.836C301.047 49.413 306.582 49.9751 311.907 51.0326C317.385 49.9751 323.073 49.413 328.427 49.413H348.166C353.501 49.413 359.16 49.9941 364.59 51.0897C365.819 50.823 367.067 50.5848 368.296 50.3657C376.413 48.9557 385.216 48.2412 394.466 48.2412C406.737 48.2412 418.159 49.5368 428.41 52.1091C445.711 56.52 460.639 64.7035 472.786 76.45C485.657 88.8824 494.45 104.382 498.937 122.502C499.27 123.865 499.575 125.246 499.832 126.618C501.69 135.297 502.605 144.7 502.605 155.284V158.028C502.605 167.84 501.919 176.1 500.442 184.017C498.108 196.544 493.945 207.691 487.714 218.075C479.521 231.727 468.394 242.692 454.637 250.675C444.291 256.687 432.821 260.841 420.541 263.022C413.082 264.508 404.489 265.232 394.371 265.232L394.4 265.242Z" stroke="white" stroke-width="2.08297"></path>
<path opacity="0.07" d="M394.399 257.135C383.434 257.135 373.211 256.049 364.009 253.896C358.397 255.192 352.51 255.878 346.927 255.878H339.725C332.237 255.878 324.492 254.677 317.232 252.4C309.944 254.677 302.18 255.878 294.682 255.878H287.48C275 255.878 261.501 252.239 250.269 245.856C214.476 242.245 184.505 212.893 180.38 177.206L179.97 173.69C177.875 155.609 182.209 137.26 192.165 122.027C198.338 112.586 199.586 110.595 199.634 110.518C201.272 107.841 202.949 105.193 204.302 103.059C205.874 100.572 207.15 98.5146 208.427 96.4568L208.598 96.1901C208.999 95.5422 209.503 94.7515 209.989 93.9703C224.422 71.1347 249.144 57.5019 276.124 57.5019H295.864C301.094 57.5019 306.619 58.1211 311.916 59.2929C317.375 58.1211 323.072 57.5019 328.464 57.5019H348.204C353.577 57.5019 359.245 58.1497 364.656 59.3691C366.352 58.9785 368.057 58.6355 369.753 58.3307C377.403 56.9969 385.72 56.3301 394.504 56.3301C406.107 56.3301 416.873 57.5495 426.485 59.9503C442.385 63.9991 456.075 71.5062 467.203 82.2619C478.959 93.6274 487.009 107.813 491.115 124.437C491.42 125.666 491.686 126.914 491.924 128.133C493.696 136.393 494.554 145.272 494.554 155.275V158.019C494.554 167.317 493.916 175.11 492.534 182.531C490.381 194.097 486.551 204.357 480.826 213.903C473.347 226.364 463.192 236.376 450.635 243.664C441.109 249.199 430.534 253.02 419.188 255.039C412.138 256.44 404.021 257.126 394.437 257.126L394.399 257.135Z" stroke="white" stroke-width="2.08297"></path>
<path opacity="0.08" d="M394.399 249.037C383.453 249.037 373.355 247.904 364.38 245.655C364.256 245.627 364.123 245.589 363.999 245.56C358.426 247.018 352.539 247.789 346.918 247.789H339.715C332.151 247.789 324.406 246.437 317.223 243.864C310.002 246.437 302.237 247.789 294.663 247.789H287.461C275.705 247.789 263.12 244.217 252.774 237.958C219.793 235.49 192.213 209.158 188.411 176.291L188.002 172.776C186.125 156.571 190.002 140.127 198.929 126.476C205.036 117.139 206.35 115.043 206.484 114.834C208.141 112.128 209.818 109.48 211.161 107.365C212.724 104.897 214.01 102.821 215.305 100.744L215.448 100.515C215.858 99.8578 216.344 99.0861 216.82 98.3335C229.758 77.8605 251.917 65.6376 276.105 65.6376H295.845C301.094 65.6376 306.61 66.3331 311.859 67.6382C317.299 66.3235 323.006 65.6376 328.436 65.6376H348.175C353.586 65.6376 359.255 66.3617 364.628 67.7335C366.772 67.2 368.963 66.7237 371.144 66.3426C378.318 65.0946 386.158 64.4658 394.475 64.4658C405.422 64.4658 415.52 65.5995 424.494 67.8478C438.984 71.5442 451.445 78.3654 461.544 88.1208C472.185 98.4097 479.483 111.29 483.227 126.418C483.503 127.533 483.751 128.667 483.951 129.772C485.608 137.498 486.418 145.853 486.418 155.313V158.057C486.418 166.85 485.818 174.167 484.532 181.083C482.56 191.686 479.064 201.07 473.843 209.768C467.079 221.038 457.886 230.098 446.53 236.691C437.832 241.749 428.143 245.246 417.73 247.094C411.1 248.409 403.44 249.056 394.399 249.056V249.037Z" stroke="white" stroke-width="2.08297"></path>
<path opacity="0.1" d="M394.399 240.931C384.12 240.931 374.679 239.873 366.343 237.787C365.533 237.577 364.743 237.368 363.961 237.149C358.445 238.806 352.577 239.673 346.918 239.673H339.716C332.047 239.673 324.311 238.12 317.233 235.177C310.107 238.12 302.352 239.673 294.664 239.673H287.461C276.41 239.673 264.769 236.148 255.318 229.985C225.128 228.708 199.93 205.425 196.452 175.349L196.043 171.833C194.385 157.505 197.815 142.977 205.703 130.906C212.2 120.97 213.315 119.179 213.362 119.102C215.02 116.397 216.697 113.758 218.04 111.633C219.583 109.204 220.879 107.099 222.184 105.003L222.317 104.793C222.727 104.136 223.203 103.383 223.661 102.65C235.102 84.5394 254.708 73.7265 276.096 73.7265H295.836C301.113 73.7265 306.62 74.5172 311.812 76.0034C317.223 74.5077 322.939 73.7265 328.427 73.7265H348.166C353.615 73.7265 359.265 74.5458 364.581 76.1082C367.181 75.3841 369.868 74.7839 372.555 74.3076C379.252 73.1453 386.616 72.5547 394.466 72.5547C404.746 72.5547 414.187 73.6122 422.522 75.6985C435.612 79.0329 446.835 85.1681 455.904 93.9423C465.441 103.155 471.985 114.739 475.348 128.353C475.596 129.363 475.815 130.373 475.996 131.363C477.549 138.547 478.311 146.378 478.311 155.304V158.048C478.311 166.327 477.759 173.176 476.558 179.588C474.767 189.219 471.604 197.727 466.889 205.586C460.839 215.675 452.618 223.773 442.452 229.68C434.574 234.262 425.771 237.434 416.301 239.121C410.09 240.35 402.897 240.95 394.39 240.95L394.399 240.931Z" stroke="white" stroke-width="2.08297"></path>
<path opacity="0.15" d="M394.4 232.834C384.778 232.834 376.004 231.862 368.315 229.938C366.81 229.557 365.334 229.128 363.886 228.661C358.465 230.576 352.634 231.576 346.928 231.576H339.726C331.904 231.576 324.187 229.747 317.252 226.279C310.269 229.757 302.505 231.576 294.674 231.576H287.471C277.106 231.576 266.417 228.08 257.929 221.945C230.606 221.926 207.647 201.5 204.512 174.425L204.103 170.91C202.664 158.468 205.646 145.835 212.496 135.346C218.993 125.41 220.155 123.552 220.26 123.371C221.899 120.704 223.566 118.065 224.899 115.95C226.443 113.511 227.758 111.396 229.072 109.281L229.196 109.081C229.606 108.424 230.063 107.69 230.52 106.976C240.476 91.228 257.519 81.8251 276.106 81.8251H295.845C301.171 81.8251 306.649 82.7397 311.774 84.4735C317.147 82.7397 322.873 81.8251 328.446 81.8251H348.185C353.673 81.8251 359.275 82.7778 364.495 84.5783C367.553 83.6257 370.745 82.854 373.993 82.2824C380.214 81.1964 387.102 80.6533 394.485 80.6533C404.108 80.6533 412.882 81.625 420.57 83.5495C432.25 86.5218 442.243 91.9806 450.284 99.7545C458.705 107.9 464.498 118.17 467.499 130.288C467.718 131.174 467.908 132.06 468.07 132.946C469.518 139.595 470.223 146.902 470.223 155.286V158.03C470.223 165.804 469.709 172.177 468.613 178.093C467.003 186.762 464.174 194.393 459.963 201.405C454.618 210.303 447.369 217.448 438.404 222.659C431.345 226.756 423.437 229.604 414.901 231.129C409.109 232.272 402.374 232.834 394.409 232.834H394.4Z" stroke="white" stroke-width="2.08297"></path>
<path opacity="0.2" d="M394.399 224.735C385.444 224.735 377.327 223.84 370.278 222.077C368.029 221.505 365.829 220.82 363.714 220.038C358.436 222.296 352.672 223.478 346.918 223.478H339.716C331.675 223.478 323.977 221.248 317.261 216.99C310.478 221.239 302.723 223.478 294.664 223.478H287.461C277.792 223.478 268.122 219.981 260.663 213.836H257.928C234.712 213.836 215.21 196.498 212.543 173.491L212.133 169.975C210.904 159.41 213.438 148.683 219.259 139.775C226.109 129.305 227.109 127.676 227.147 127.619C228.757 124.99 230.415 122.37 231.749 120.274C233.302 117.826 234.626 115.692 235.95 113.548L236.064 113.358C236.474 112.7 236.922 111.986 237.36 111.3C245.82 97.9147 260.301 89.9218 276.096 89.9218H295.835C301.228 89.9218 306.677 91.0174 311.697 93.0942C317.004 91.0174 322.758 89.9218 328.436 89.9218H348.175C353.701 89.9218 359.236 91.0364 364.304 93.1704C367.82 91.9224 371.545 90.9412 375.403 90.2552C381.148 89.2549 387.559 88.75 394.476 88.75C403.431 88.75 411.548 89.6455 418.597 91.408C428.867 94.0278 437.632 98.7912 444.653 105.574C451.96 112.643 457 121.608 459.629 132.23C459.82 132.992 459.982 133.774 460.124 134.536C461.468 140.642 462.125 147.435 462.125 155.294V158.038C462.125 165.298 461.658 171.204 460.648 176.615C459.219 184.323 456.714 191.067 453.018 197.241C448.388 204.948 442.109 211.14 434.345 215.656C428.105 219.276 421.093 221.801 413.491 223.154C408.118 224.211 401.849 224.735 394.418 224.735H394.399Z" stroke="white" stroke-width="2.08297"></path>
<path opacity="0.4" d="M394.399 216.627C386.101 216.627 378.651 215.818 372.24 214.217C369.143 213.426 366.19 212.407 363.418 211.188C358.378 213.941 352.719 215.379 346.917 215.379H339.715C331.417 215.379 323.434 212.34 317.299 206.929C311.049 212.331 302.98 215.379 294.663 215.379H287.461C278.572 215.379 270.027 211.883 263.749 205.729L257.909 205.748C238.827 205.748 222.784 191.486 220.593 172.566L220.183 169.051C219.173 160.362 221.259 151.541 226.042 144.224C232.672 134.078 233.882 132.144 234.054 131.858C235.664 129.229 237.322 126.609 238.655 124.504C240.151 122.151 241.485 119.988 242.828 117.825L242.942 117.644C243.352 116.987 243.781 116.301 244.209 115.625C251.173 104.602 263.101 98.0192 276.095 98.0192H295.835C301.332 98.0192 306.734 99.3911 311.583 101.992C316.794 99.3815 322.567 98.0192 328.426 98.0192H348.165C353.739 98.0192 359.159 99.3815 363.98 101.982C367.924 100.296 372.23 99.0386 376.812 98.2193C382.071 97.3047 388.006 96.8379 394.466 96.8379C402.763 96.8379 410.213 97.6477 416.625 99.2482C425.494 101.506 433.02 105.593 439.013 111.385C445.215 117.378 449.502 125.037 451.75 134.164C451.912 134.802 452.045 135.45 452.16 136.107C453.398 141.68 454.008 147.949 454.008 155.285V158.028C454.008 164.773 453.579 170.213 452.665 175.119C451.407 181.864 449.244 187.733 446.043 193.058C442.128 199.575 436.812 204.814 430.248 208.635C424.827 211.778 418.702 213.979 412.042 215.16C407.088 216.132 401.287 216.618 394.389 216.618L394.399 216.627Z" stroke="white" stroke-width="2.08297"></path>
<path opacity="0.6" d="M394.399 208.529C386.768 208.529 379.976 207.796 374.212 206.357C370.077 205.3 366.305 203.795 362.942 201.87C358.35 205.376 352.767 207.272 346.927 207.272H339.725C331.818 207.272 324.435 203.699 319.586 197.602H315.118C310.106 203.699 302.609 207.272 294.683 207.272H287.48C279.573 207.272 272.199 203.699 267.341 197.612L257.9 197.64C242.943 197.64 230.377 186.456 228.653 171.632L228.243 168.117C227.452 161.305 229.081 154.389 232.835 148.654C239.17 138.965 240.637 136.64 240.971 136.097C242.543 133.535 244.134 131.02 245.544 128.8C247.02 126.466 248.373 124.284 249.726 122.112L249.821 121.95C250.231 121.293 250.65 120.616 251.069 119.969C256.537 111.309 265.902 106.145 276.105 106.145H295.845C301.494 106.145 307.001 108.079 311.421 111.537C316.385 108.041 322.31 106.145 328.445 106.145H348.185C353.768 106.145 359.093 107.946 363.456 111.271C367.753 108.898 372.726 107.203 378.251 106.221C383.034 105.393 388.493 104.964 394.485 104.964C402.116 104.964 408.909 105.697 414.672 107.136C422.132 109.041 428.429 112.433 433.392 117.234C438.48 122.15 442.014 128.505 443.9 136.126C444.024 136.64 444.139 137.164 444.224 137.688C445.367 142.718 445.92 148.482 445.92 155.294V158.037C445.92 164.278 445.539 169.241 444.72 173.652C443.643 179.425 441.814 184.417 439.118 188.904C435.917 194.239 431.573 198.526 426.2 201.641C421.598 204.309 416.368 206.186 410.642 207.196C406.108 208.091 400.773 208.529 394.409 208.529H394.399Z" stroke="white" stroke-width="2.08297"></path>
<path opacity="0.8" d="M394.399 200.423C387.425 200.423 381.3 199.775 376.174 198.489C370.487 197.041 365.733 194.611 362.008 191.268C358.616 196.126 353.015 199.165 346.917 199.165H339.715C332.942 199.165 326.93 195.383 323.939 189.486L310.83 189.515C307.639 195.383 301.456 199.165 294.663 199.165H287.461C280.687 199.165 274.676 195.383 271.694 189.496L257.871 189.534C247.039 189.534 237.941 181.436 236.702 170.69L236.293 167.174C235.721 162.239 236.902 157.228 239.617 153.075C245.476 144.11 247.344 141.185 247.877 140.318C249.411 137.813 250.945 135.393 252.421 133.059C253.87 130.763 255.241 128.562 256.604 126.371L256.689 126.228C257.099 125.571 257.509 124.914 257.909 124.275C261.891 117.978 268.684 114.225 276.095 114.225H295.835C302.342 114.225 308.02 117.883 310.925 123.256C314.974 117.578 321.424 114.225 328.426 114.225H348.165C354.043 114.225 359.283 117.178 362.389 121.789C363.723 120.627 365.18 119.588 366.743 118.683C370.391 116.568 374.736 115.044 379.651 114.177C383.958 113.424 388.94 113.053 394.475 113.053C401.449 113.053 407.574 113.701 412.7 114.987C418.759 116.53 423.818 119.245 427.752 123.056C431.734 126.905 434.516 131.954 436.031 138.07C436.126 138.451 436.202 138.832 436.259 139.223C437.307 143.719 437.812 148.978 437.812 155.294V158.038C437.812 163.764 437.469 168.26 436.745 172.166C435.85 176.977 434.354 181.083 432.163 184.732C429.676 188.876 426.294 192.211 422.122 194.63C418.349 196.822 414.005 198.365 409.213 199.222C405.097 200.032 400.229 200.432 394.389 200.432L394.399 200.423Z" stroke="white" stroke-width="2.08297"></path>
<path fill-rule="evenodd" clip-rule="evenodd" d="M423.037 141.779H423.057C423.057 141.779 423.087 141.779 423.087 141.76C422.156 138.139 420.538 135.184 418.229 133.029C415.905 130.874 412.74 129.239 408.799 128.27C404.777 127.301 399.754 126.785 393.719 126.785C388.927 126.785 384.75 127.084 381.199 127.682C377.718 128.28 374.779 129.249 372.39 130.584C369.991 131.925 368.143 133.704 366.751 135.941C365.358 138.178 364.352 140.853 363.731 144.127C363.11 147.401 362.884 151.123 362.884 155.437V158.041C362.884 160.013 361.382 161.613 359.324 161.613H358.017C355.242 161.613 352.988 159.449 352.988 156.773V132.739C352.988 130.107 350.78 127.899 348.045 127.899H328.569C325.399 127.899 322.449 129.49 320.756 132.069C320.381 132.648 319.985 133.246 319.589 133.853C318.197 136.008 316.805 138.168 315.342 140.405C313.875 142.642 312.408 144.865 310.935 147.174C308.171 151.393 301.345 149.392 301.345 144.407V132.744C301.345 130.112 299.136 127.904 296.402 127.904H276.925C273.755 127.904 270.805 129.495 269.112 132.074C268.737 132.653 268.341 133.25 267.945 133.858C266.553 136.013 265.161 138.173 263.699 140.41C262.231 142.647 260.764 144.869 259.291 147.179C258.175 148.943 253.622 155.65 250.953 159.584C249.796 161.286 249.3 163.311 249.541 165.331L249.946 168.672C250.472 173.049 254.328 176.352 258.906 176.352H278.703C280.881 176.352 282.639 178.054 282.639 180.141C282.639 183.053 285.103 185.498 288.128 185.498H295.235C298.695 185.498 301.42 182.803 301.42 179.471C301.42 177.745 302.877 176.352 304.665 176.352H330.252C332.43 176.352 334.188 178.054 334.188 180.141C334.188 183.053 336.652 185.498 339.677 185.498H346.783C350.244 185.498 352.968 182.803 352.968 179.471C352.968 177.745 354.426 176.352 356.214 176.352H361.157C364.202 176.352 366.891 178.083 368.939 180.252C369.004 180.315 369.059 180.378 369.13 180.44C371.453 182.677 374.618 184.23 378.56 185.199C382.581 186.168 387.605 186.684 393.639 186.684C398.507 186.684 402.609 186.385 406.16 185.715C409.64 185.117 412.58 184.075 414.969 182.74C417.368 181.4 419.216 179.621 420.608 177.384C422 175.147 423.007 172.471 423.628 169.274C424.249 166.073 424.474 162.351 424.474 157.964V155.36C424.474 149.961 424.014 145.434 423.017 141.798C423.017 141.779 423.037 141.769 423.047 141.779H423.037ZM283.626 156.691C283.626 159.733 281.067 162.202 277.902 162.202H270.72C269.603 162.202 268.942 160.996 269.573 160.109L280.851 144.228C281.132 143.828 281.603 143.597 282.103 143.597C282.94 143.597 283.626 144.248 283.626 145.053V156.686V156.691ZM335.185 156.691C335.185 159.733 332.625 162.202 329.46 162.202H322.279C321.162 162.202 320.501 160.996 321.132 160.109L332.415 144.228C332.695 143.828 333.166 143.597 333.667 143.597C334.503 143.597 335.19 144.248 335.19 145.053V156.686L335.185 156.691ZM405.228 156.845C405.228 159.748 405.078 162.129 404.767 163.913C404.457 165.697 403.921 167.114 403.065 168.156C402.208 169.197 401.051 169.867 399.514 170.239C397.971 170.61 396.033 170.836 393.714 170.836C391.396 170.836 389.382 170.61 387.84 170.239C386.297 169.867 385.131 169.197 384.284 168.156C383.438 167.114 382.817 165.774 382.506 163.913C382.196 162.047 381.96 159.743 381.96 156.845V156.546C381.96 153.644 382.111 151.262 382.506 149.479C382.902 147.695 383.438 146.277 384.284 145.308C385.131 144.339 386.297 143.669 387.84 143.298C389.382 142.927 391.321 142.7 393.714 142.7C396.108 142.7 398.046 142.927 399.514 143.298C400.981 143.669 402.223 144.339 403.065 145.308C403.911 146.277 404.457 147.69 404.767 149.479C405.078 151.262 405.228 153.649 405.228 156.546V156.845Z" fill="white"></path>
<path fill-rule="evenodd" clip-rule="evenodd" d="M431.21 140.984C431.17 140.608 431.105 140.236 431.01 139.87C429.803 135.179 427.564 130.787 423.898 127.378L423.888 127.369C420.367 124.105 415.86 121.892 410.812 120.653H410.802L410.782 120.643H410.772C405.909 119.471 400.185 118.922 393.714 118.922C388.591 118.922 383.928 119.24 379.787 119.934H379.756C375.595 120.653 371.693 121.872 368.278 123.786C365.288 125.455 362.824 127.624 360.881 130.223C359.684 124.553 354.531 120.045 348.035 120.045H328.558C322.539 120.045 317.005 123.058 313.84 127.88L313.825 127.904V127.913C313.614 128.227 313.429 128.511 313.229 128.815C313.053 129.085 312.868 129.365 312.663 129.683L312.653 129.707C312.412 130.073 312.177 130.445 311.942 130.811C311.135 132.06 310.329 133.303 309.513 134.567V132.744C309.513 125.956 303.838 120.04 296.401 120.04H276.925C270.905 120.04 265.371 123.054 262.211 127.875V127.884L262.196 127.899V127.909C261.986 128.222 261.8 128.506 261.6 128.81C261.425 129.08 261.239 129.36 261.034 129.683L261.019 129.707C260.779 130.073 260.543 130.445 260.308 130.811C259.151 132.604 257.999 134.383 256.802 136.211C256.627 136.476 256.457 136.741 256.281 137.006V137.016H256.276C254.989 138.978 253.672 140.984 252.345 143.057L252.33 143.081C251.313 144.682 247.006 151.036 244.262 155.081L244.127 155.283C241.928 158.518 240.976 162.39 241.442 166.237L241.848 169.573C242.855 177.924 250.196 184.21 258.921 184.21H275.162C276.925 189.427 281.983 193.356 288.148 193.356H295.254C301.575 193.356 306.773 189.49 308.751 184.21H326.715C328.478 189.427 333.537 193.356 339.702 193.356H346.808C353.128 193.356 358.327 189.49 360.305 184.21H361.136C361.176 184.22 361.287 184.254 361.477 184.355C361.812 184.533 362.313 184.89 362.924 185.536C362.979 185.599 363.039 185.657 363.099 185.715C363.15 185.768 363.255 185.874 363.385 185.999C367.021 189.499 371.648 191.606 376.566 192.816H376.576L376.596 192.826H376.606C381.469 193.997 387.194 194.547 393.664 194.547C398.822 194.547 403.465 194.234 407.687 193.443C411.959 192.705 415.8 191.384 419.095 189.538C422.706 187.523 425.551 184.784 427.639 181.424C429.622 178.237 430.919 174.64 431.681 170.721C432.437 166.825 432.662 162.558 432.662 157.964V155.36C432.662 150.091 432.257 145.241 431.24 140.984H431.21ZM428.741 157.969C428.741 162.462 428.516 166.468 427.824 170.031C427.128 173.604 425.971 176.767 424.274 179.5C422.516 182.321 420.147 184.606 417.112 186.298C414.247 187.903 410.832 189.09 406.941 189.76C403.034 190.492 398.652 190.796 393.634 190.796C387.369 190.796 381.98 190.266 377.518 189.191H377.498C373.046 188.092 369.114 186.245 366.104 183.347C366.014 183.261 365.934 183.179 365.904 183.15L365.889 183.135C365.849 183.097 365.814 183.058 365.774 183.02C364.106 181.255 362.478 180.469 361.156 180.469H357.195C356.684 185.556 352.312 189.615 346.783 189.615H339.676C334.328 189.615 330.091 185.44 329.916 180.469H305.646C305.135 185.556 300.763 189.615 295.234 189.615H288.128C282.779 189.615 278.542 185.44 278.367 180.469H258.901C252.155 180.469 246.47 175.6 245.694 169.144L245.288 165.808C244.928 162.833 245.664 159.839 247.367 157.332L247.507 157.13C250.221 153.128 254.579 146.702 255.635 145.033L255.645 145.019C256.957 142.965 258.27 140.974 259.557 139.007C259.732 138.742 259.907 138.477 260.077 138.211C261.284 136.37 262.441 134.581 263.598 132.788C263.834 132.421 264.074 132.055 264.309 131.684L264.319 131.669C264.525 131.356 264.705 131.076 264.88 130.811C265.081 130.507 265.271 130.218 265.481 129.895L265.491 129.88C267.955 126.13 272.257 123.791 276.92 123.791H296.396C301.585 123.791 305.621 127.933 305.621 132.749V144.412C305.621 144.71 305.706 144.865 305.797 144.971C305.907 145.101 306.092 145.236 306.337 145.303C306.583 145.376 306.793 145.356 306.923 145.318C307.014 145.289 307.149 145.226 307.304 144.995C307.429 144.802 307.554 144.604 307.68 144.412C308.065 143.814 308.446 143.221 308.831 142.632C309.057 142.285 309.282 141.938 309.508 141.591C310.074 140.723 310.639 139.865 311.195 139.012C311.371 138.747 311.546 138.481 311.716 138.216C312.923 136.375 314.08 134.586 315.237 132.792C315.472 132.426 315.713 132.055 315.948 131.688L315.958 131.674C316.163 131.361 316.344 131.086 316.519 130.816C316.719 130.512 316.91 130.218 317.12 129.895L317.13 129.88C319.594 126.13 323.896 123.791 328.558 123.791H348.035C353.228 123.791 357.26 127.933 357.26 132.749V156.783C357.26 157.183 357.596 157.506 358.011 157.506H358.602V155.442C358.602 154.893 358.602 154.353 358.612 153.818C358.667 150.028 358.918 146.567 359.519 143.394C359.909 141.331 360.445 139.426 361.146 137.662C361.687 136.297 362.328 135.02 363.074 133.824C364.832 131.004 367.201 128.719 370.236 127.026C373.161 125.387 376.606 124.288 380.443 123.627H380.458C384.319 122.976 388.751 122.668 393.714 122.668C399.979 122.668 405.368 123.203 409.83 124.273H409.85C414.368 125.387 418.239 127.325 421.189 130.064H421.194C424.214 132.879 426.157 136.592 427.233 140.772C427.299 141.032 427.339 141.292 427.354 141.557C428.33 145.496 428.741 150.134 428.741 155.36V157.964V157.969Z" fill="white"></path>
</svg>