<svg xmlns="http://www.w3.org/2000/svg" width="383.442" height="158.250" viewBox="0 0 383.442 158.250" fill="none">
  <path d="M 380.222 44.2 L 380.172 43.98 C 377.512 33.22 372.662 24.39 365.762 17.71 C 358.872 11.07 349.972 6.32 339.262 3.59 C 329.742 1.21 318.222 0 305.032 0 C 294.522 0 285.122 0.71 277.042 2.12 C 268.142 3.71 260.352 6.42 253.902 10.18 C 248.372 13.39 243.662 17.52 239.822 22.5 C 236.792 10.9 226.282 2.33 213.822 2.33 L 174.932 2.33 C 162.722 2.33 151.502 8.54 144.912 18.98 C 144.502 19.63 142.592 22.66 142.562 22.71 L 141.132 25.01 C 139.952 26.9 138.772 28.8 137.582 30.72 L 137.582 29.38 C 137.582 14.47 125.522 2.33 110.702 2.33 L 71.812 2.33 C 59.592 2.33 48.382 8.54 41.792 18.97 C 41.382 19.63 39.472 22.66 39.442 22.7 L 38.132 24.82 C 35.812 28.55 33.472 32.32 31.022 36.19 L 29.872 38.01 C 27.342 42.01 24.722 46.15 22.082 50.45 C 20.062 53.75 11.462 66.92 6.272 74.87 L 5.712 75.72 C 1.232 82.56 -0.708 90.8 0.232 98.92 L 1.042 105.83 C 3.082 123.49 18.042 136.82 35.822 136.82 L 67.702 136.82 C 71.452 147.93 81.862 155.79 94.182 155.79 L 108.372 155.79 C 120.882 155.79 131.602 148.03 135.822 136.82 L 170.642 136.82 C 174.392 147.93 184.802 155.79 197.122 155.79 L 211.312 155.79 C 223.822 155.79 234.542 148.03 238.762 136.82 L 239.832 136.82 C 240.292 136.98 241.522 137.74 242.972 139.34 C 243.092 139.47 243.222 139.61 243.342 139.74 C 243.512 139.93 243.692 140.12 243.902 140.32 C 250.602 147.02 259.582 151.84 270.632 154.66 C 280.152 157.04 291.662 158.25 304.862 158.25 C 315.832 158.25 325.032 157.5 332.992 155.95 C 341.592 154.4 349.332 151.65 355.992 147.77 C 363.192 143.59 369.022 137.84 373.302 130.69 C 377.172 124.22 379.842 116.89 381.462 108.25 C 382.812 101.01 383.442 92.56 383.442 81.67 L 383.442 76.26 C 383.442 62.86 382.422 52.67 380.232 44.19 L 380.222 44.2 Z M 374.922 81.68 C 374.922 92.04 374.342 99.99 373.092 106.7 C 371.672 114.32 369.352 120.74 366.002 126.33 C 362.462 132.23 357.662 136.97 351.712 140.42 C 345.892 143.81 339.062 146.23 331.422 147.6 C 323.982 149.05 315.292 149.75 304.852 149.75 C 292.352 149.75 281.522 148.63 272.682 146.42 C 263.162 143.99 255.512 139.92 249.902 134.31 C 249.762 134.17 249.632 134.03 249.502 133.89 L 249.552 133.94 C 249.452 133.84 249.342 133.73 249.252 133.62 C 247.452 131.64 243.862 128.32 240.002 128.32 L 232.062 128.32 C 231.042 138.95 222.122 147.29 211.302 147.29 L 197.112 147.29 C 186.592 147.29 177.992 138.84 177.652 128.32 L 129.122 128.32 C 128.102 138.95 119.182 147.29 108.362 147.29 L 94.172 147.29 C 83.652 147.29 75.052 138.84 74.712 128.32 L 35.812 128.32 C 22.342 128.32 11.022 118.24 9.472 104.86 L 8.662 97.94 C 7.942 91.8 9.422 85.56 12.812 80.38 L 13.372 79.52 C 18.552 71.58 27.222 58.3 29.312 54.88 C 31.922 50.64 34.532 46.51 37.052 42.52 L 38.182 40.73 C 40.642 36.84 42.992 33.05 45.332 29.29 L 46.632 27.19 C 46.632 27.19 48.552 24.14 48.972 23.48 C 53.982 15.55 62.502 10.83 71.782 10.83 L 110.672 10.83 C 120.802 10.83 129.052 19.15 129.052 29.37 L 129.052 53.56 C 129.052 54.18 129.212 54.59 129.592 54.94 C 130.002 55.32 130.612 55.55 131.182 55.55 C 131.752 55.55 132.142 55.33 132.492 54.76 C 135.082 50.56 137.732 46.36 140.292 42.31 L 141.292 40.72 C 143.712 36.9 146.022 33.17 148.312 29.48 L 149.742 27.18 C 149.742 27.18 151.672 24.12 152.072 23.47 C 157.082 15.53 165.602 10.82 174.882 10.82 L 213.772 10.82 C 223.902 10.82 232.152 19.14 232.152 29.36 L 232.152 79.21 C 232.152 80.06 232.842 80.75 233.692 80.75 L 234.912 80.75 L 234.912 76.44 C 234.912 66.24 235.492 58.3 236.742 51.46 C 238.152 43.73 240.472 37.25 243.842 31.63 C 247.382 25.73 252.182 20.99 258.132 17.54 C 263.722 14.28 270.582 11.91 278.492 10.5 C 286.062 9.18 294.972 8.51 304.992 8.51 C 317.492 8.51 328.322 9.63 337.162 11.84 C 346.392 14.2 354.002 18.23 359.822 23.84 C 365.552 29.38 369.602 36.84 371.882 46.03 C 371.902 46.1 371.922 46.18 371.932 46.25 C 373.952 54.03 374.892 63.59 374.892 76.28 L 374.892 81.69 L 374.922 81.68 Z" fill="currentColor" fill-rule="nonzero"></path>
  <path d="M 363.662 48.07 C 361.802 40.56 358.572 34.43 353.952 29.96 C 349.312 25.49 342.992 22.1 335.122 20.09 C 327.092 18.08 317.062 17.01 305.012 17.01 C 295.442 17.01 287.102 17.63 280.012 18.87 C 273.062 20.11 267.192 22.12 262.422 24.89 C 257.632 27.67 253.942 31.36 251.162 36 C 248.382 40.64 246.372 46.19 245.132 52.98 C 243.892 59.77 243.442 67.49 243.442 76.44 L 243.442 81.84 C 243.442 85.93 240.442 89.25 236.332 89.25 L 233.722 89.25 C 228.182 89.25 223.682 84.76 223.682 79.21 L 223.682 29.36 C 223.682 23.9 219.272 19.32 213.812 19.32 L 174.922 19.32 C 168.592 19.32 162.702 22.62 159.322 27.97 C 158.572 29.17 157.782 30.41 156.992 31.67 C 154.212 36.14 151.432 40.62 148.512 45.26 C 145.582 49.9 142.652 54.51 139.712 59.3 C 134.192 68.05 120.562 63.9 120.562 53.56 L 120.562 29.37 C 120.562 23.91 116.152 19.33 110.692 19.33 L 71.802 19.33 C 65.472 19.33 59.582 22.63 56.202 27.98 C 55.452 29.18 54.662 30.42 53.872 31.68 C 51.092 36.15 48.312 40.63 45.392 45.27 C 42.462 49.91 39.532 54.52 36.592 59.31 C 34.362 62.97 25.272 76.88 19.942 85.04 C 17.632 88.57 16.642 92.77 17.122 96.96 L 17.932 103.89 C 18.982 112.97 26.682 119.82 35.822 119.82 L 75.352 119.82 C 79.702 119.82 83.212 123.35 83.212 127.68 C 83.212 133.72 88.132 138.79 94.172 138.79 L 108.362 138.79 C 115.272 138.79 120.712 133.2 120.712 126.29 C 120.712 122.71 123.622 119.82 127.192 119.82 L 178.282 119.82 C 182.632 119.82 186.142 123.35 186.142 127.68 C 186.142 133.72 191.062 138.79 197.102 138.79 L 211.292 138.79 C 218.202 138.79 223.642 133.2 223.642 126.29 C 223.642 122.71 226.552 119.82 230.122 119.82 L 239.992 119.82 C 246.072 119.82 251.442 123.41 255.532 127.91 C 255.662 128.04 255.772 128.17 255.912 128.3 C 260.552 132.94 266.872 136.16 274.742 138.17 C 282.772 140.18 292.802 141.25 304.852 141.25 C 314.572 141.25 322.762 140.63 329.852 139.24 C 336.802 138 342.672 135.84 347.442 133.07 C 352.232 130.29 355.922 126.6 358.702 121.96 C 361.482 117.32 363.492 111.77 364.732 105.14 C 365.972 98.5 366.422 90.78 366.422 81.68 L 366.422 76.28 C 366.422 65.08 365.662 55.69 363.672 48.15 C 363.672 48.11 363.662 48.11 363.662 48.07 Z M 85.202 79.03 C 85.202 85.34 80.092 90.46 73.772 90.46 L 59.432 90.46 C 57.202 90.46 55.882 87.96 57.142 86.12 L 79.662 53.18 C 80.222 52.35 81.162 51.87 82.162 51.87 C 83.832 51.87 85.202 53.22 85.202 54.89 L 85.202 79.03 Z M 188.152 79.03 C 188.152 85.34 183.042 90.46 176.722 90.46 L 162.382 90.46 C 160.152 90.46 158.832 87.96 160.092 86.12 L 182.622 53.18 C 183.182 52.35 184.122 51.87 185.122 51.87 C 186.792 51.87 188.162 53.22 188.162 54.89 L 188.162 79.02 L 188.152 79.03 Z M 328.012 79.35 C 328.012 85.37 327.712 90.31 327.092 94.01 C 326.472 97.71 325.402 100.65 323.692 102.81 C 321.982 104.97 319.672 106.36 316.592 107.13 C 313.512 107.9 309.652 108.37 305.012 108.37 C 300.372 108.37 296.362 107.9 293.282 107.13 C 290.202 106.36 287.872 104.97 286.192 102.81 C 284.502 100.65 283.262 97.87 282.642 94.01 C 282.022 90.14 281.552 85.36 281.552 79.35 L 281.552 78.73 C 281.552 72.71 281.852 67.77 282.642 64.07 C 283.432 60.37 284.502 57.43 286.192 55.42 C 287.882 53.41 290.212 52.02 293.282 51.25 C 296.362 50.48 300.232 50.01 305.012 50.01 C 309.792 50.01 313.662 50.48 316.592 51.25 C 319.522 52.02 322.002 53.41 323.692 55.42 C 325.382 57.43 326.472 60.36 327.092 64.07 C 327.712 67.77 328.012 72.72 328.012 78.73 L 328.012 79.35 Z" fill="currentColor" fill-rule="nonzero"></path>
</svg>